<?xml version='1.0' encoding='utf-8'?>
<svg xmlns="http://www.w3.org/2000/svg" width="91.44mm" height="91.44mm" version="1.1" style="shape-rendering:geometricPrecision; text-rendering:geometricPrecision; image-rendering:optimizeQuality; fill-rule:evenodd; clip-rule:evenodd" viewBox="0 0 143.79 143.79"> <defs> <style type="text/css">  .fil1 {fill:white;fill-rule:nonzero} .fil0 {fill:url(#id0)}  </style> <linearGradient id="id0" gradientUnits="userSpaceOnUse" x1="135.16" y1="8.62" x2="8.62" y2="135.16"> <stop offset="0" style="stop-opacity:1; stop-color:#EC268F"/> <stop offset="1" style="stop-opacity:1; stop-color:#F58634"/> </linearGradient> </defs> <g id="Camada_x0020_1"> <metadata id="CorelCorpID_0Corel-Layer"/> <polygon class="fil0" points="-0,143.79 143.79,143.79 143.79,0 -0,0 "/> <path class="fil1" d="M97.08 75.34l-24.24 24.24c-0.52,0.52 -1.36,0.52 -1.88,0l-24.24 -24.24c-3.59,-3.59 -5.39,-8.33 -5.39,-13.06 0,-4.73 1.8,-9.47 5.39,-13.06 3.59,-3.59 8.33,-5.39 13.06,-5.39 4.33,0 8.66,1.5 12.12,4.51 3.46,-3.01 7.79,-4.51 12.12,-4.51 4.73,0 9.47,1.8 13.06,5.39 3.59,3.59 5.39,8.33 5.39,13.06 0,4.73 -1.8,9.47 -5.39,13.06zm-25.18 21.42l23.3 -23.3c3.07,-3.07 4.61,-7.13 4.61,-11.18 0,-4.05 -1.54,-8.11 -4.61,-11.18 -3.07,-3.07 -7.13,-4.61 -11.18,-4.61 -4.05,0 -8.11,1.54 -11.18,4.61 -0.52,0.52 -1.36,0.52 -1.88,0 -3.07,-3.07 -7.13,-4.61 -11.18,-4.61 -4.05,0 -8.11,1.54 -11.18,4.61 -3.07,3.07 -4.61,7.13 -4.61,11.18 0,4.05 1.54,8.11 4.61,11.18l23.3 23.3z"/> </g> </svg>